# xmcd CD database file
#
# Track frame offsets:
#	150
#	4871
#	18237
#	21110
#	33916
#	48551
#	61426
#	63052
#	75465
#	88164
#	109058
#	123726
#	129621
#	145817
#	162473
#	171992
#	184012
#	186605
#	197384
#	213680
#	228128
#
# Disc length: 3410 seconds
#
# Revision: 0
# Processed by: cddbd v1.5.2PL0 Copyright (c) Steve Scherf et al.
# Submitted via: CDex 1.70beta2
#
DISCID=240d5015
DTITLE=Billy Dee - Live Set - Texas Music Round-up Bootleg Series
DYEAR=2006
DGENRE=Country
TTITLE0=KUT Radio Intro
TTITLE1=What'll I Do
TTITLE2=Larry Monroe Speaks
TTITLE3=Truly
TTITLE4=Back To Back
TTITLE5=Paper Sack
TTITLE6=Larry Monroe Speaks Again
TTITLE7=Not Tonight (I've Got A Heartache)
TTITLE8=Don't Give Up On Love
TTITLE9=When The Vow Breaks
TTITLE10=May Your Heart (Rest In Pieces)
TTITLE11=Band Introductions
TTITLE12=Romance (Ft. Bubba Cox)
TTITLE13=Larry Interviews Billy
TTITLE14=No More Me And You
TTITLE15=Loved On Look
TTITLE16=More Introductions
TTITLE17=Everybody's Got Someone But Me
TTITLE18=For Sale Sign
TTITLE19=Old Love Letters
TTITLE20=Gospel Medley - Will The Circle Be Unbroken, I Saw The Light
EXTD=YEAR: 2006
EXTT0=
EXTT1=
EXTT2=
EXTT3=
EXTT4=
EXTT5=
EXTT6=
EXTT7=
EXTT8=
EXTT9=
EXTT10=
EXTT11=
EXTT12=
EXTT13=
EXTT14=
EXTT15=
EXTT16=
EXTT17=
EXTT18=
EXTT19=
EXTT20=
PLAYORDER=
